<svg xmlns="http://www.w3.org/2000/svg" version="1.1" xmlns:xlink="http://www.w3.org/1999/xlink" width="512" height="512" x="0" y="0" viewBox="0 0 58 58" style="enable-background:new 0 0 512 512" xml:space="preserve" class=""><g><g fill="none" fill-rule="evenodd"><path fill="#cc2a2e" d="M58 19.059v19.883a5 5 0 0 1-1.464 3.535L42.477 56.536A5 5 0 0 1 38.942 58H19.058a5 5 0 0 1-3.535-1.464L1.464 42.477A5 5 0 0 1 0 38.942V19.059a5 5 0 0 1 1.464-3.536L15.523 1.464A5 5 0 0 1 19.058 0h19.884a5 5 0 0 1 3.535 1.464l14.059 14.059A5 5 0 0 1 58 19.059z" opacity="1" data-original="#e54c3c" class=""></path><path fill="#ebeff0" d="M19.473 54a2 2 0 0 1-1.414-.586L4.586 39.941A2 2 0 0 1 4 38.527V19.473a2 2 0 0 1 .586-1.414L18.059 4.586A2 2 0 0 1 19.473 4h19.054a2 2 0 0 1 1.414.586l13.473 13.473A2 2 0 0 1 54 19.473v19.054a2 2 0 0 1-.586 1.414L39.941 53.414a2 2 0 0 1-1.414.586z" opacity="1" data-original="#ebeff0" class=""></path><g fill="#464f5d"><path d="M12 31h4v3a1 1 0 0 0 2 0v-3h3a1 1 0 0 0 0-2h-3v-3a1 1 0 0 0-2 0v3h-2.656l2.614-8.713a1 1 0 0 0-1.916-.574l-3 10A1 1 0 0 0 12 31zM37 31h4v3a1 1 0 0 0 2 0v-3h3a1 1 0 0 0 0-2h-3v-3a1 1 0 0 0-2 0v3h-2.656l2.614-8.713a1 1 0 0 0-1.916-.574l-3 10A1 1 0 0 0 37 31z" fill="#464f5d" opacity="1" data-original="#464f5d" class=""></path><path fill-rule="nonzero" d="M29 35a5.006 5.006 0 0 0 5-5v-6a5 5 0 0 0-10 0v6a5.006 5.006 0 0 0 5 5zm-3-11a3 3 0 0 1 6 0v6a3 3 0 0 1-6 0z" fill="#464f5d" opacity="1" data-original="#464f5d" class=""></path><path d="M46 37H12a1 1 0 0 0 0 2h34a1 1 0 0 0 0-2z" fill="#464f5d" opacity="1" data-original="#464f5d" class=""></path></g></g></g></svg>