<svg id="Layer_1" viewBox="0 0 512 512" xmlns="http://www.w3.org/2000/svg" data-name="Layer 1"><g fill-rule="evenodd"><path d="m249.903 180.437c-145.672-145.701-241.795 33.335-164.296 110.806l164.296 164.324 164.324-164.324c77.471-77.471-18.652-256.507-164.324-110.806z" fill="#cc2a2e"/><path d="m240.464 195.46c-30.019-24.917-59.811-66.189-126.737-64.516-57.09 23.527-76.62 111.798-28.12 160.299l152.419 152.447 152.447-152.447c53.461-53.433 24.293-155.197-46.772-165.373-15.704 2.126-67.153 7.71-103.238 69.591z" fill="#f14b4e"/><path d="m249.903 455.567 70.327-70.328-18.142-18.142c-9.978-10.006-9.978-26.334 0-36.312l6.86-6.86c-7.313-3.884-15.647-6.094-24.463-6.094h-69.165c-8.816 0-17.15 2.211-24.463 6.094l6.86 6.86c9.978 9.978 9.978 26.305 0 36.312l-18.142 18.142z" fill="#168bb5"/><path d="m288.284 317.973c-1.247-.085-2.523-.142-3.799-.142h-69.165c-8.816 0-17.15 2.211-24.463 6.094l6.86 6.86c9.978 9.978 9.978 26.305 0 36.312l-18.142 18.142 61.398 61.398 57.005-57.005-9.213-9.241c-8.362-8.362-13.011-19.644-13.011-31.465 0-11.565 4.479-22.649 12.529-30.954z" fill="#20a5d5"/><path d="m249.903 317.832c28.913 0 52.469-23.556 52.469-52.469s-23.556-52.469-52.469-52.469-52.469 23.584-52.469 52.469 23.584 52.469 52.469 52.469z" fill="#ffcbbe"/><path d="m244.347 317.548c-26.362-2.778-46.913-25.087-46.913-52.186s20.551-49.379 46.913-52.157c26.362 2.778 46.913 25.058 46.913 52.157s-20.551 49.408-46.913 52.186z" fill="#ffddcf"/></g><path d="m390.615 230.95c3.118-3.118 8.192-3.118 11.31 0 3.146 3.118 3.146 8.192 0 11.31l-94.195 94.195c-3.402 3.43-5.131 7.937-5.131 12.472s1.729 9.071 5.131 12.501l18.17 18.142-11.31 11.31-18.17-18.142c-6.548-6.548-9.808-15.165-9.808-23.811s3.26-17.235 9.808-23.783l94.195-94.195z" fill="#cc2a2e"/><path d="m97.881 242.26c-3.118-3.118-3.118-8.192 0-11.31s8.192-3.118 11.31 0l94.195 94.195c6.548 6.548 9.836 15.166 9.836 23.783s-3.288 17.263-9.836 23.811l-18.142 18.142-11.31-11.31 18.142-18.142c3.43-3.43 5.131-7.965 5.131-12.501s-1.701-9.042-5.131-12.472l-94.195-94.195z" fill="#cc2a2e"/><path d="m140.939 53.643c33.534 0 60.746 27.184 60.746 60.746s-27.213 60.747-60.746 60.747-60.746-27.213-60.746-60.747 27.184-60.746 60.746-60.746zm217.956 0c33.534 0 60.747 27.184 60.747 60.746s-27.213 60.747-60.747 60.747-60.775-27.213-60.775-60.747 27.213-60.746 60.775-60.746z" fill="#ffcbbe" fill-rule="evenodd"/><path d="m136.574 174.966c-31.521-2.24-56.381-28.488-56.381-60.576s24.86-58.365 56.381-60.605c31.521 2.24 56.381 28.517 56.381 60.605s-24.86 58.337-56.381 60.576zm217.956-121.182c31.521 2.24 56.381 28.517 56.381 60.605s-24.86 58.337-56.381 60.576c-31.521-2.24-56.409-28.488-56.409-60.576s24.888-58.365 56.409-60.605z" fill="#ffddcf" fill-rule="evenodd"/></svg>