<svg id="Layer_1" enable-background="new 0 0 66 66" viewBox="0 0 66 66" xmlns="http://www.w3.org/2000/svg"><g><g><g><path d="m63.5400009 6.6908655-16.975235 47.9152641c-.4627991 1.3378029-1.981636 1.9511871-3.0376701 1.158474l-17.500349-12.3558655.0000038-.0683022-9.3116493-6.5373573.0000038-.0683022-13.604311-9.5650749c-1.3204443-.9739914-.8576035-3.1305599.7273357-3.6815529l57.3899242-19.3202199c.5949554-.1893408 1.1890945-.1062412 1.5849037.1998949.1983109.0501647.2644119.1808591.3966141.3056474.3966065.5101313.5940819 1.2433715.3304291 2.0173945z" fill="#f47a76"/></g><g><path d="m63.2095718 4.673471-37.1828212 38.666964-.0000038.0683022-4.9539509 18.5242043-4.3576946-25.1298637.0000038-.0683022 46.0978546-32.366951c.1983089.0501637.26441.1808581.3966121.3056464z" fill="#ee3831"/></g><g><path d="m21.0877438 61.9313049 14.8486347-11.5244293-9.9326306-7.0392342z" fill="#d6332c"/></g></g></g></svg>