<svg xmlns="http://www.w3.org/2000/svg" version="1.1" xmlns:xlink="http://www.w3.org/1999/xlink" width="512" height="512" x="0" y="0" viewBox="0 0 64 64" style="enable-background:new 0 0 512 512" xml:space="preserve" class=""><g><path fill="#cc2a2e" d="M49.104 30.375 34.777 5.561a3.207 3.207 0 0 0-5.554 0L14.896 30.375a19.548 19.548 0 0 0 0 19.749c7.274 13.092 26.934 13.097 34.207 0a19.547 19.547 0 0 0 0-19.749zm-1.732 18.749A17.57 17.57 0 0 1 32 57.999c-13.461.22-22.295-15.077-15.37-26.624L30.954 6.56a1.206 1.206 0 0 1 2.09 0L47.37 31.375a17.569 17.569 0 0 1 0 17.749zm-3.222-12.37a1 1 0 0 1-1.414 1.415 15.247 15.247 0 0 0-21.472 0 1 1 0 0 1-1.414-1.415 17.175 17.175 0 0 1 24.3 0zm-3.421 5.088a1 1 0 0 1-1.417 1.411 10.382 10.382 0 0 0-14.623 0 1 1 0 0 1-1.417-1.411 12.333 12.333 0 0 1 17.457 0zm-3.846 5.935a1 1 0 0 1-1.414 0 4.944 4.944 0 0 0-6.938 0 1 1 0 0 1-1.414 0c-1.472-1.853 3.48-3.624 4.883-3.43 1.401-.194 6.357 1.577 4.883 3.43z" opacity="1" data-original="#ff377e" class=""></path></g></svg>